<svg xmlns="http://www.w3.org/2000/svg" data-name="Layer 1" viewBox="0 0 100 125" x="0px" y="0px"><title>Artboard 22</title><path d="M99,20.76V55a7.58,7.58,0,0,1-7.58,7.57H70.56a12.56,12.56,0,0,0,2.07-8.14h7.23a13,13,0,0,1,11-11.16V31.38a11.85,11.85,0,0,1-9.88-10H53.78a13,13,0,0,1-11,11.16V49.23l-8.14,3.19V20.76a7.58,7.58,0,0,1,7.58-7.58H91.42A7.58,7.58,0,0,1,99,20.76ZM60.3,42.88a12.83,12.83,0,0,1,9.08,3.81,9.19,9.19,0,1,0-10.23-3.75C59.54,42.9,59.92,42.88,60.3,42.88ZM35.59,58.49A5.23,5.23,0,0,1,29.73,57a5.47,5.47,0,0,1-1.27-3.61V32.82A14.35,14.35,0,0,0,27,32.75a14.18,14.18,0,0,0-8.47,2.79L2.07,47.76A2.65,2.65,0,0,0,1,49.88V84.5a2.31,2.31,0,0,0,2.31,2.31h11A39.78,39.78,0,0,0,36.51,80a5.7,5.7,0,0,0,10.07,2.16,5.7,5.7,0,0,0,10.76,0,5.69,5.69,0,0,0,10.19-3V70.79a2.16,2.16,0,0,0-2.16-2.16H51.87L63.57,61.2a6.54,6.54,0,0,0,2.78-7.64,6.41,6.41,0,0,0-6-4.27h0a6.39,6.39,0,0,0-2.33.44L35.66,58.46h0Z"/><text x="0" y="115" fill="#000000" font-size="5px" font-weight="bold" font-family="'Helvetica Neue', Helvetica, Arial-Unicode, Arial, Sans-serif">Created by Gregor Cresnar</text><text x="0" y="120" fill="#000000" font-size="5px" font-weight="bold" font-family="'Helvetica Neue', Helvetica, Arial-Unicode, Arial, Sans-serif">from the Noun Project</text></svg>