<?xml version="1.0" encoding="iso-8859-1"?>
<!-- Generator: Adobe Illustrator 18.0.0, SVG Export Plug-In . SVG Version: 6.00 Build 0)  -->
<!DOCTYPE svg PUBLIC "-//W3C//DTD SVG 1.1//EN" "http://www.w3.org/Graphics/SVG/1.1/DTD/svg11.dtd">
<svg version="1.1" id="Capa_1" xmlns="http://www.w3.org/2000/svg" xmlns:xlink="http://www.w3.org/1999/xlink" x="0px" y="0px"
	 viewBox="0 0 460.001 460.001" style="enable-background:new 0 0 460.001 460.001;" xml:space="preserve">
<g>
	<path d="M337.452,56.499H122.548c-20.672,0-37.49,16.818-37.49,37.49v108.01c0,8.284,6.716,15,15,15h259.885
		c8.284,0,15-6.716,15-15V93.989C374.943,73.316,358.124,56.499,337.452,56.499z M344.943,186.999H115.058v-93.01
		c0-4.13,3.36-7.49,7.49-7.49h214.904c4.13,0,7.49,3.36,7.49,7.49V186.999z"/>
	<path d="M400.049,0H59.951c-17.45,0-31.646,14.197-31.646,31.647v396.707c0,17.45,14.196,31.647,31.646,31.647h340.098
		c17.45,0,31.647-14.197,31.647-31.647V31.647C431.697,14.197,417.499,0,400.049,0z M401.697,428.354
		c0,0.908-0.739,1.647-1.647,1.647H59.951c-0.908,0-1.646-0.739-1.646-1.647V31.647c0-0.908,0.738-1.647,1.646-1.647h340.098
		c0.908,0,1.647,0.739,1.647,1.647V428.354z"/>
	<path d="M156.976,240.63h-44.789c-8.284,0-15,6.716-15,15v44.789c0,8.284,6.716,15,15,15h44.789c8.284,0,15-6.716,15-15V255.63
		C171.976,247.346,165.26,240.63,156.976,240.63z M141.976,285.419h-14.789V270.63h14.789V285.419z"/>
	<path d="M156.976,333.129h-44.789c-8.284,0-15,6.716-15,15v44.789c0,8.284,6.716,15,15,15h44.789c8.284,0,15-6.716,15-15v-44.789
		C171.976,339.845,165.26,333.129,156.976,333.129z M141.976,377.917h-14.789v-14.789h14.789V377.917z"/>
	<path d="M251.745,240.63h-44.788c-8.284,0-15,6.716-15,15v44.789c0,8.284,6.716,15,15,15h44.788c8.284,0,15-6.716,15-15V255.63
		C266.745,247.346,260.03,240.63,251.745,240.63z M236.745,285.419h-14.788V270.63h14.788V285.419z"/>
	<path d="M251.745,333.129h-44.788c-8.284,0-15,6.716-15,15v44.789c0,8.284,6.716,15,15,15h44.788c8.284,0,15-6.716,15-15v-44.789
		C266.745,339.845,260.03,333.129,251.745,333.129z M236.745,377.917h-14.788v-14.789h14.788V377.917z"/>
	<path d="M347.814,240.63h-44.788c-8.284,0-15,6.716-15,15v44.789c0,8.284,6.716,15,15,15h44.788c8.284,0,15-6.716,15-15V255.63
		C362.814,247.346,356.098,240.63,347.814,240.63z M332.814,285.419h-14.788V270.63h14.788V285.419z"/>
	<path d="M347.814,333.129h-44.788c-8.284,0-15,6.716-15,15v44.789c0,8.284,6.716,15,15,15h44.788c8.284,0,15-6.716,15-15v-44.789
		C362.814,339.845,356.098,333.129,347.814,333.129z M332.814,377.917h-14.788v-14.789h14.788V377.917z"/>
</g>
<g>
</g>
<g>
</g>
<g>
</g>
<g>
</g>
<g>
</g>
<g>
</g>
<g>
</g>
<g>
</g>
<g>
</g>
<g>
</g>
<g>
</g>
<g>
</g>
<g>
</g>
<g>
</g>
<g>
</g>
</svg>
