<?xml version="1.0" encoding="iso-8859-1"?>
<!-- Generator: Adobe Illustrator 18.0.0, SVG Export Plug-In . SVG Version: 6.00 Build 0)  -->
<!DOCTYPE svg PUBLIC "-//W3C//DTD SVG 1.1//EN" "http://www.w3.org/Graphics/SVG/1.1/DTD/svg11.dtd">
<svg version="1.1" id="Capa_1" xmlns="http://www.w3.org/2000/svg" xmlns:xlink="http://www.w3.org/1999/xlink" x="0px" y="0px"
	 viewBox="0 0 460 460" style="enable-background:new 0 0 460 460;" xml:space="preserve">
<g>
	<path d="M425.933,0H171.661c-18.122,0-32.864,14.743-32.864,32.864v77.134h30V32.864c0-1.579,1.285-2.864,2.864-2.864h254.272
		c1.579,0,2.864,1.285,2.864,2.864v254.272c0,1.58-1.285,2.865-2.864,2.865h-74.729v30h74.729c18.121,0,32.864-14.743,32.864-32.865
		V32.864C458.797,14.743,444.054,0,425.933,0z"/>
	<path d="M288.339,139.998H34.067c-18.122,0-32.865,14.743-32.865,32.865v254.272C1.203,445.257,15.946,460,34.067,460h254.272
		c18.122,0,32.865-14.743,32.865-32.864V172.863C321.205,154.741,306.461,139.998,288.339,139.998z M291.205,427.136
		c0,1.579-1.285,2.864-2.865,2.864H34.067c-1.58,0-2.865-1.285-2.865-2.864V172.863c0-1.58,1.285-2.865,2.865-2.865h254.272
		c1.58,0,2.865,1.285,2.865,2.865V427.136z"/>
</g>
<g>
</g>
<g>
</g>
<g>
</g>
<g>
</g>
<g>
</g>
<g>
</g>
<g>
</g>
<g>
</g>
<g>
</g>
<g>
</g>
<g>
</g>
<g>
</g>
<g>
</g>
<g>
</g>
<g>
</g>
</svg>
