<?xml version="1.0" encoding="iso-8859-1"?>
<!-- Generator: Adobe Illustrator 18.0.0, SVG Export Plug-In . SVG Version: 6.00 Build 0)  -->
<!DOCTYPE svg PUBLIC "-//W3C//DTD SVG 1.1//EN" "http://www.w3.org/Graphics/SVG/1.1/DTD/svg11.dtd">
<svg version="1.1" id="Capa_1" xmlns="http://www.w3.org/2000/svg" xmlns:xlink="http://www.w3.org/1999/xlink" x="0px" y="0px"
	 viewBox="0 0 458.238 458.238" style="enable-background:new 0 0 458.238 458.238;" xml:space="preserve">
<path d="M438.968,346.349l-78.313-78.313c-5.736-5.736-15.038-5.736-20.775,0l-24.35,24.35l-12.299-12.3
	c25.307-30.589,39.081-68.676,39.081-108.881c0-45.72-17.804-88.704-50.134-121.032c-66.892-66.894-175.165-66.902-242.065,0
	c-66.738,66.737-66.738,175.327,0,242.065c64.066,64.065,165.587,66.516,232.551,8.831l12.091,12.092l-26.779,26.779
	c-5.734,5.733-5.736,15.04,0,20.775l78.313,78.313c25.611,25.613,67.066,25.616,92.679,0
	C464.58,413.416,464.583,371.963,438.968,346.349z M70.888,271.464c-55.282-55.283-55.282-145.234,0-200.516
	c55.413-55.412,145.098-55.417,200.516,0c26.78,26.78,41.528,62.385,41.528,100.258s-14.748,73.479-41.528,100.259
	C215.991,326.877,126.305,326.881,70.888,271.464z M418.193,418.253c-14.131,14.132-36.998,14.131-51.129,0l-67.925-67.925
	l51.129-51.129l67.926,67.925C432.322,381.252,432.325,404.122,418.193,418.253z"/>
<g>
</g>
<g>
</g>
<g>
</g>
<g>
</g>
<g>
</g>
<g>
</g>
<g>
</g>
<g>
</g>
<g>
</g>
<g>
</g>
<g>
</g>
<g>
</g>
<g>
</g>
<g>
</g>
<g>
</g>
</svg>
