<?xml version="1.0" encoding="iso-8859-1"?>
<!-- Generator: Adobe Illustrator 18.0.0, SVG Export Plug-In . SVG Version: 6.00 Build 0)  -->
<!DOCTYPE svg PUBLIC "-//W3C//DTD SVG 1.1//EN" "http://www.w3.org/Graphics/SVG/1.1/DTD/svg11.dtd">
<svg version="1.1" id="Capa_1" xmlns="http://www.w3.org/2000/svg" xmlns:xlink="http://www.w3.org/1999/xlink" x="0px" y="0px"
	 viewBox="0 0 461.431 461.431" style="enable-background:new 0 0 461.431 461.431;" xml:space="preserve">
<g>
	<path d="M347.457,172.519c14.588-26.185,23.64-54.488,26.164-81.186h22.955c8.284,0,15-6.716,15-15V15c0-8.284-6.716-15-15-15
		H64.854c-8.284,0-15,6.716-15,15v61.333c0,8.284,6.716,15,15,15H87.81c2.524,26.697,11.577,55,26.165,81.186
		c13.288,23.851,30.154,43.862,48.802,58.197c-18.648,14.335-35.514,34.346-48.802,58.197
		c-14.588,26.185-23.64,54.488-26.165,81.185H64.854c-8.284,0-15,6.716-15,15v61.333c0,8.284,6.716,15,15,15h331.722
		c8.284,0,15-6.716,15-15v-61.333c0-8.284-6.716-15-15-15h-22.955c-2.524-26.697-11.577-55-26.164-81.185
		c-13.288-23.851-30.154-43.862-48.802-58.197C317.303,216.38,334.168,196.369,347.457,172.519z M79.854,30h301.722v31.333H79.854
		V30z M381.576,400.097v31.333H79.854v-31.333C95.742,400.097,364.385,400.097,381.576,400.097z M264.003,244.114
		c39.623,19.94,73.652,75.151,79.485,125.983H243.329c1.503-2.337,2.386-5.112,2.386-8.097v-23c0-8.284-6.716-15-15-15
		s-15,6.716-15,15v23c0,2.985,0.882,5.76,2.386,8.097H117.942c5.833-50.832,39.862-106.043,79.485-125.983
		c5.063-2.548,8.257-7.731,8.257-13.399s-3.194-10.851-8.257-13.399c-39.623-19.94-73.652-75.151-79.485-125.983h225.546
		c-5.833,50.832-39.862,106.043-79.485,125.983c-5.063,2.548-8.257,7.731-8.257,13.399S258.941,241.566,264.003,244.114z"/>
	<path d="M280.104,178.199c11.438-15.821,18.266-35.755,18.266-53.324c0-8.284-6.716-15-15-15H178.061c-8.284,0-15,6.716-15,15
		c0,17.569,6.829,37.503,18.266,53.324c9.753,13.491,21.623,22.597,34.388,26.609v81.116c0,8.284,6.716,15,15,15s15-6.716,15-15
		v-81.116C258.48,200.796,270.351,191.69,280.104,178.199z M230.715,177.137c-14.967,0-29.675-18.498-35.279-37.262h70.559
		C260.39,158.639,245.683,177.137,230.715,177.137z"/>
</g>
<g>
</g>
<g>
</g>
<g>
</g>
<g>
</g>
<g>
</g>
<g>
</g>
<g>
</g>
<g>
</g>
<g>
</g>
<g>
</g>
<g>
</g>
<g>
</g>
<g>
</g>
<g>
</g>
<g>
</g>
</svg>
