<?xml version="1.0" encoding="iso-8859-1"?>
<!-- Generator: Adobe Illustrator 18.0.0, SVG Export Plug-In . SVG Version: 6.00 Build 0)  -->
<!DOCTYPE svg PUBLIC "-//W3C//DTD SVG 1.1//EN" "http://www.w3.org/Graphics/SVG/1.1/DTD/svg11.dtd">
<svg version="1.1" id="Capa_1" xmlns="http://www.w3.org/2000/svg" xmlns:xlink="http://www.w3.org/1999/xlink" x="0px" y="0px"
	 viewBox="0 0 464.841 464.841" style="enable-background:new 0 0 464.841 464.841;" xml:space="preserve">
<g>
	<path d="M431.008,116.853H192.868V79.848c0-18.655-15.177-33.833-33.833-33.833H33.833C15.178,46.015,0,61.193,0,79.848v305.145
		c0,18.655,15.178,33.833,33.833,33.833h397.175c18.656,0,33.833-15.178,33.833-33.833V150.686
		C464.841,132.031,449.664,116.853,431.008,116.853z M434.841,384.993c0,2.113-1.72,3.833-3.833,3.833H33.833
		c-2.114,0-3.833-1.72-3.833-3.833V79.848c0-2.113,1.72-3.833,3.833-3.833h125.201c2.113,0,3.833,1.72,3.833,3.833v52.005
		c0,8.284,6.716,15,15,15h253.141c2.113,0,3.833,1.72,3.833,3.833V384.993z"/>
	<path d="M345.609,175.86L198.76,322.71l-79.528-79.528c-5.857-5.857-15.355-5.857-21.213,0c-5.858,5.857-5.858,15.355,0,21.213
		l90.135,90.135c2.813,2.813,6.628,4.394,10.606,4.394s7.793-1.58,10.606-4.394l157.456-157.456c5.858-5.857,5.858-15.355,0-21.213
		C360.965,170.003,351.467,170.003,345.609,175.86z"/>
</g>
<g>
</g>
<g>
</g>
<g>
</g>
<g>
</g>
<g>
</g>
<g>
</g>
<g>
</g>
<g>
</g>
<g>
</g>
<g>
</g>
<g>
</g>
<g>
</g>
<g>
</g>
<g>
</g>
<g>
</g>
</svg>
